PathFileType  4	(X/Y/Z) C:\Users\hpl\Documents\MyRepositories\mocap-processing\Data\treadmill\running\
DataRate	CameraRate	NumFrames	NumMarkers	Units	OrigDataRate	OrigDataStartFrame	OrigNumFrames
  200.0		  200.0		    10		     46		 mm	  200.0	      197	    785
Frame#	Time	r_knee			r_shank_antsup			r_ankle			r_calc			r_5meta			r_toe			L_knee			L_shank_antsup			L_ankle			L_calc			L_5meta			L_toe			r_sh2			r_sh3			r_sh4			L_sh2			L_sh3			r_thigh1			r_thigh2			r_thigh3			r_thigh4			r_thigh5			L_thigh1			L_thigh2			L_thigh3			L_thigh4			r.ASIS			r.PSIS			L.ASIS			L.PSIS			C7			R_Shoulder			L_Shoulder			Sternum			R_humerus			R_elbow_med			R_elbow_lat			R_forearm			R_wrist_radius			R_wrist_ulna			L_humerus			L_elbow_med			L_elbow_lat			L_forearm			L_wrist_radius			L_wrist_ulna			
		X1	Y1	Z1	X2	Y2	Z2	X3	Y3	Z3	X4	Y4	Z4	X5	Y5	Z5	X6	Y6	Z6	X7	Y7	Z7	X8	Y8	Z8	X9	Y9	Z9	X10	Y10	Z10	X11	Y11	Z11	X12	Y12	Z12	X13	Y13	Z13	X14	Y14	Z14	X15	Y15	Z15	X16	Y16	Z16	X17	Y17	Z17	X18	Y18	Z18	X19	Y19	Z19	X20	Y20	Z20	X21	Y21	Z21	X22	Y22	Z22	X23	Y23	Z23	X24	Y24	Z24	X25	Y25	Z25	X26	Y26	Z26	X27	Y27	Z27	X28	Y28	Z28	X29	Y29	Z29	X30	Y30	Z30	X31	Y31	Z31	X32	Y32	Z32	X33	Y33	Z33	X34	Y34	Z34	X35	Y35	Z35	X36	Y36	Z36	X37	Y37	Z37	X38	Y38	Z38	X39	Y39	Z39	X40	Y40	Z40	X41	Y41	Z41	X42	Y42	Z42	X43	Y43	Z43	X44	Y44	Z44	X45	Y45	Z45	X46	Y46	Z46	

197	0.98000	1056.478	634.060	-150.050	1020.999	518.684	-153.674	781.916	290.378	-211.104	710.651	314.148	-280.032	815.650	157.530	-176.950	873.187	152.685	-230.427	607.444	521.860	-456.969	556.062	409.671	-459.172	331.149	185.436	-401.214	276.926	194.665	-343.067	409.187	44.533	-420.877	454.738	48.120	-357.672	942.726	429.560	-169.610	963.974	563.629	-140.633	883.136	485.147	-165.735	489.479	470.731	-460.972	417.876	373.563	-438.905	990.488	859.708	-136.348	1060.814	770.410	-154.820	1052.066	719.159	-130.349	914.104	787.356	-95.208	987.663	699.324	-125.962	773.860	703.872	-466.899	714.579	579.713	-440.365	667.772	749.309	-496.750	614.844	624.112	-464.014	860.233	1010.556	-162.022	656.886	1067.952	-238.400	851.633	1000.827	-434.082	650.526	1054.517	-350.327	790.489	1549.341	-336.249	780.522	1528.631	-138.310	877.272	1505.332	-503.169	934.957	1437.968	-290.921	638.671	1370.895	-62.459	500.730	1308.349	-135.119	501.927	1348.027	-54.189	604.838	1201.300	-25.483	661.159	1101.246	-20.261	615.334	1085.621	-2.163	814.892	1271.932	-597.009	693.689	1170.203	-570.954	738.741	1210.557	-647.646	884.347	1150.864	-583.423	961.556	1158.239	-499.964	959.946	1094.517	-533.896
198	0.98500	1056.439	637.449	-149.795	1026.897	520.126	-153.424	802.646	278.358	-210.715	730.325	297.928	-283.294	843.450	147.612	-178.021	901.429	146.310	-231.322	596.261	530.625	-456.384	542.980	419.315	-459.673	320.283	192.167	-404.283	267.722	205.437	-344.894	389.795	45.798	-421.666	434.816	48.829	-358.195	954.243	426.536	-169.879	967.268	561.780	-141.118	891.442	478.536	-166.917	476.440	480.303	-459.834	405.328	382.943	-438.005	991.406	863.454	-135.274	1061.774	775.024	-154.303	1052.788	723.409	-130.410	914.489	790.966	-95.748	988.559	703.378	-126.699	768.976	707.308	-465.245	706.374	584.767	-438.269	664.679	754.811	-497.013	608.024	631.355	-464.158	861.158	1014.338	-161.805	658.381	1071.320	-238.748	854.053	1004.518	-433.471	652.411	1057.940	-350.778	790.156	1552.525	-335.945	778.907	1532.354	-138.179	877.598	1509.908	-501.559	934.530	1442.685	-289.102	636.047	1376.679	-62.346	498.270	1314.879	-137.743	498.964	1354.581	-56.611	601.389	1208.157	-27.304	657.517	1107.854	-21.551	611.549	1092.251	-3.553	817.052	1276.766	-595.546	695.329	1174.577	-570.229	741.032	1215.135	-646.810	886.543	1158.251	-580.668	962.935	1167.268	-496.672	962.631	1103.448	-529.990
199	0.99000	1055.641	639.962	-149.738	1032.465	521.045	-153.262	823.025	266.459	-212.334	750.249	282.039	-285.428	871.097	138.272	-179.884	929.739	140.744	-232.105	585.947	539.384	-455.719	530.513	429.053	-460.730	310.968	199.263	-407.398	259.751	216.825	-347.421	370.062	47.624	-422.341	415.723	50.040	-359.176	965.279	423.372	-169.982	970.349	559.108	-141.769	899.815	471.564	-168.246	464.123	489.965	-458.550	393.786	392.118	-437.241	991.998	867.145	-133.377	1062.392	778.658	-153.425	1052.727	726.535	-130.958	914.545	794.144	-96.217	988.688	706.632	-127.620	764.360	710.920	-463.498	698.263	589.900	-436.381	661.355	760.174	-497.229	601.857	638.681	-463.588	862.056	1018.009	-161.674	659.586	1074.833	-239.334	856.435	1008.203	-432.746	654.302	1061.474	-351.098	789.686	1555.986	-333.604	777.277	1535.926	-138.057	877.778	1514.372	-499.966	934.109	1447.283	-287.382	633.283	1381.897	-65.061	496.353	1321.272	-140.235	496.187	1360.971	-59.093	598.378	1214.770	-29.122	654.115	1114.035	-22.947	607.980	1098.504	-5.169	819.250	1281.448	-594.038	697.305	1179.163	-569.277	743.230	1219.645	-645.850	888.561	1165.573	-578.081	964.045	1176.026	-493.222	964.983	1112.083	-526.277
200	0.99500	1054.635	641.862	-149.871	1037.662	521.254	-153.281	843.725	254.995	-213.628	770.546	266.351	-287.386	899.117	129.755	-181.229	957.878	135.994	-232.509	576.333	548.171	-454.647	519.585	439.320	-459.716	301.943	206.702	-410.778	252.679	228.700	-350.435	351.476	50.860	-423.249	397.467	51.853	-360.131	976.507	420.018	-170.194	973.366	555.701	-142.238	908.238	464.421	-169.013	452.542	499.715	-457.333	382.912	401.372	-436.723	992.344	869.960	-132.735	1062.495	781.253	-152.320	1052.190	728.919	-131.294	914.175	796.699	-96.782	988.028	709.246	-128.361	759.998	714.230	-462.432	690.827	595.015	-434.991	658.720	765.948	-497.326	596.095	645.812	-462.744	862.729	1021.569	-161.531	660.784	1078.108	-239.991	858.796	1011.732	-432.014	656.099	1064.797	-351.579	789.391	1559.099	-332.227	775.836	1539.290	-138.018	877.821	1518.536	-498.279	933.795	1451.640	-285.709	631.085	1387.067	-65.676	494.471	1327.534	-142.512	493.746	1366.786	-61.552	595.454	1220.909	-30.749	651.125	1119.951	-24.309	605.018	1104.492	-6.666	821.271	1285.985	-592.579	698.484	1183.552	-568.829	745.102	1224.140	-645.364	890.102	1172.710	-575.573	964.788	1184.482	-490.094	967.104	1120.503	-522.727
201	1.00000	1053.284	643.130	-150.217	1042.407	521.069	-153.411	864.650	243.860	-214.947	791.007	251.117	-288.864	927.441	122.277	-182.144	986.114	132.394	-233.339	567.985	556.438	-453.108	509.343	448.649	-460.603	293.459	215.129	-414.118	245.718	240.958	-353.700	333.630	55.620	-424.181	379.389	54.595	-361.345	987.307	416.506	-170.357	976.180	551.706	-142.283	916.662	456.733	-169.903	442.824	508.978	-455.908	373.290	410.212	-436.373	992.747	871.980	-132.243	1062.104	782.689	-151.128	1050.983	730.275	-131.673	913.332	798.768	-97.496	986.869	711.047	-129.427	755.862	717.651	-461.542	684.406	600.158	-433.382	655.649	771.382	-497.242	590.217	653.395	-461.502	863.586	1024.790	-161.595	662.032	1081.385	-240.607	860.888	1015.164	-431.201	657.831	1068.214	-351.608	789.048	1561.884	-331.057	774.651	1542.480	-137.736	877.910	1522.670	-496.535	933.347	1455.554	-284.221	629.149	1392.291	-65.781	493.282	1333.235	-144.647	491.600	1372.487	-63.556	592.925	1226.657	-32.173	648.609	1125.407	-25.602	602.183	1110.053	-8.092	823.465	1290.029	-591.827	699.532	1187.830	-568.538	746.774	1228.529	-644.779	891.403	1179.511	-573.230	965.144	1192.264	-487.115	968.669	1128.565	-519.301
202	1.00500	1051.802	643.777	-150.629	1046.776	520.536	-153.163	885.509	233.213	-216.053	811.937	236.187	-290.387	955.775	115.704	-182.864	1013.721	129.532	-234.223	560.893	564.019	-451.429	501.032	457.384	-460.043	284.730	224.222	-416.790	238.405	253.519	-357.035	316.499	61.665	-425.266	362.488	57.991	-362.363	997.841	412.895	-170.677	978.840	547.220	-142.304	925.102	448.920	-170.198	434.591	518.070	-454.856	364.473	418.905	-436.982	992.768	873.204	-131.456	1061.216	782.867	-150.606	1049.332	730.638	-132.036	912.196	800.330	-98.274	984.994	712.089	-130.302	752.180	720.763	-460.842	678.494	604.506	-433.149	653.336	776.798	-496.697	585.480	660.230	-459.937	864.404	1027.917	-161.603	663.147	1084.603	-241.179	862.824	1018.174	-430.587	659.466	1071.406	-351.823	788.694	1564.493	-329.881	773.669	1545.304	-137.548	877.826	1526.479	-494.894	933.085	1459.270	-282.719	627.350	1397.005	-66.092	492.077	1338.618	-146.782	489.794	1377.587	-65.644	590.407	1232.040	-33.496	646.565	1130.473	-26.723	599.939	1115.087	-9.480	825.156	1294.139	-590.431	700.385	1191.944	-568.271	748.426	1232.727	-644.353	892.447	1186.124	-571.044	965.560	1199.813	-484.191	969.789	1136.195	-515.990
203	1.01000	1050.369	643.779	-151.075	1050.635	519.379	-153.321	906.572	223.177	-216.259	832.934	221.677	-291.019	983.975	110.234	-183.353	1040.993	127.956	-234.544	555.544	570.594	-449.847	494.494	465.454	-458.362	276.142	234.050	-419.232	231.107	265.993	-360.560	300.075	68.965	-426.472	346.399	61.818	-364.117	1008.149	409.002	-171.078	981.329	542.118	-142.299	933.256	440.933	-170.628	428.318	526.256	-454.207	357.398	427.949	-438.327	992.841	873.352	-130.570	1060.233	782.457	-149.683	1047.068	729.987	-132.592	910.766	801.291	-99.116	982.720	712.310	-131.555	749.148	723.962	-460.254	673.117	609.414	-431.914	651.005	782.042	-495.869	580.774	667.456	-458.545	864.973	1030.542	-161.737	664.134	1087.506	-242.064	864.524	1020.990	-429.911	660.896	1074.447	-351.936	788.241	1566.677	-328.985	772.785	1547.887	-137.346	877.438	1529.985	-493.316	932.748	1462.710	-281.199	625.638	1401.295	-66.519	491.138	1343.567	-148.594	488.281	1382.088	-67.128	588.312	1236.758	-34.438	644.777	1135.052	-27.788	598.090	1119.712	-10.568	826.756	1298.063	-589.160	701.204	1195.727	-568.045	749.678	1236.821	-644.155	893.245	1192.403	-568.928	965.845	1207.036	-481.478	970.804	1143.426	-512.920
204	1.01500	1048.584	642.868	-151.529	1054.136	517.822	-153.444	927.561	213.767	-216.341	853.928	207.721	-290.877	1011.909	105.909	-183.693	1067.503	127.219	-235.085	550.394	578.081	-449.169	489.499	472.119	-457.151	267.716	244.551	-421.149	223.672	278.659	-363.548	284.312	77.378	-427.880	330.482	66.044	-365.832	1018.017	405.347	-171.015	983.517	536.517	-142.184	941.378	432.704	-170.625	423.980	533.683	-453.898	351.756	436.080	-439.671	992.713	872.898	-129.652	1058.839	780.970	-149.044	1044.703	728.664	-133.191	909.151	800.849	-102.599	980.073	711.904	-132.778	746.954	726.875	-459.749	669.021	613.887	-430.714	649.273	787.019	-495.239	578.200	673.315	-456.195	865.619	1032.909	-161.845	664.995	1090.448	-242.726	865.720	1023.482	-429.581	662.065	1077.468	-351.979	787.957	1568.958	-327.773	772.114	1550.225	-136.915	876.951	1533.047	-491.931	932.539	1465.845	-279.678	624.176	1405.399	-65.339	490.219	1348.055	-150.333	486.915	1385.970	-68.691	586.576	1241.026	-35.203	643.389	1139.236	-28.631	596.448	1123.867	-11.856	828.095	1301.662	-587.894	701.697	1199.518	-568.104	750.720	1240.635	-644.044	893.725	1198.235	-567.027	966.129	1213.557	-478.912	970.649	1150.051	-509.318
205	1.02000	1046.217	641.053	-152.272	1057.025	515.527	-153.215	947.895	204.791	-216.750	875.182	194.197	-288.332	1039.211	102.542	-183.819	1093.310	127.313	-235.347	548.090	582.786	-447.707	486.550	477.918	-455.144	260.023	255.323	-422.862	216.941	291.772	-366.514	269.004	86.195	-429.490	313.920	71.306	-367.193	1027.477	401.291	-171.191	985.526	530.547	-142.093	949.106	424.284	-171.037	421.576	540.312	-454.283	347.084	444.212	-441.490	992.542	871.553	-129.038	1057.325	778.755	-148.719	1042.046	726.421	-133.886	907.352	800.563	-104.149	977.215	710.727	-134.272	745.472	729.567	-459.209	665.808	618.028	-430.098	649.431	791.245	-493.781	575.948	678.986	-454.846	866.078	1034.869	-161.989	665.793	1092.988	-243.477	867.080	1025.734	-429.132	663.286	1080.158	-352.136	787.558	1570.899	-325.347	771.701	1552.247	-136.433	877.668	1536.093	-489.535	932.408	1468.549	-278.234	623.065	1408.605	-65.672	489.647	1351.696	-151.351	485.367	1389.622	-70.009	585.172	1244.829	-35.705	642.530	1142.922	-29.331	595.486	1127.346	-12.656	829.130	1304.982	-586.872	702.064	1203.038	-568.226	751.777	1244.228	-643.890	893.982	1203.663	-565.272	964.054	1220.397	-476.509	970.952	1156.180	-506.691
206	1.02500	1043.427	638.431	-153.061	1059.676	513.104	-153.346	968.088	196.502	-216.594	896.114	181.273	-288.268	1065.747	99.973	-183.736	1117.978	128.245	-235.361	546.447	587.022	-446.994	484.165	482.576	-453.197	252.656	266.041	-424.218	210.386	305.053	-369.442	254.196	95.859	-430.785	297.643	78.904	-368.385	1036.307	397.287	-171.338	987.300	523.809	-141.527	956.532	416.336	-171.201	420.301	546.304	-454.977	343.692	451.754	-443.376	992.348	869.457	-128.373	1055.645	775.657	-148.628	1039.258	723.458	-134.874	905.590	799.666	-105.687	974.177	708.995	-136.165	745.060	731.977	-458.368	663.953	621.484	-428.955	649.055	795.070	-493.123	574.873	683.696	-453.538	866.461	1036.381	-162.143	666.430	1095.462	-244.376	868.034	1027.757	-428.806	664.277	1082.861	-352.129	787.285	1572.626	-324.599	771.332	1553.975	-135.676	877.659	1538.841	-487.908	932.323	1471.086	-276.725	622.019	1411.259	-65.829	488.990	1354.903	-152.581	484.756	1392.037	-70.782	583.997	1248.089	-36.213	642.046	1146.286	-29.802	594.780	1130.428	-13.482	829.976	1308.081	-586.025	702.384	1206.342	-568.457	752.581	1247.513	-643.890	894.024	1208.567	-563.674	963.010	1225.868	-474.193	970.857	1161.759	-504.219
